<?xml version="1.0" encoding="UTF-8" standalone="no"?>
<svg width="103px" height="147px">
  <defs>
    <radialGradient id="Threads" fy="-1" fx="0.2" r="1">
      <stop offset="48%" stop-color="#fff" />
      <stop offset="60%" stop-color="#333" />
    </radialGradient>
    <linearGradient id="EndCap" y1="50%">
      <stop offset="0%" stop-color="#ccc" />
      <stop offset="100%" stop-color="#666" />
    </linearGradient>
    <radialGradient id="Light" gradientUnits="userSpaceOnUse" cx="100" cy="100" r="60">
      <stop offset="0%" stop-color="#fff" />
      <stop offset="100%" stop-color="#ff6" />
    </radialGradient>
  </defs>
  <g transform="translate(-48.5,-45.19872981)">
    <path id="Light" style="fill: url(#Light)" d="M100,100 m-43.30127,21.69872981 a50,50 0 1,1 86.60254,0 c-6,12 -23.301270,18.301270 -23.301270,33.301270 a50,50 0 0,1 -40,0 c0,-15 -17.301270,-21.301270 -23.301270,-33.301270 z" />
    <g style="fill: url(#Threads)">
      <path id="Thread 1" d="M100,100 m-20,55 a50,50 0 0,0 40,-2 l0,7 a-50,50 0 0,1 -40,2 z" />
      <path id="Thread 2" d="M100,100 m-20,62 a50,50 0 0,0 40,-2 l0,7 a-50,50 0 0,1 -40,2 z" />
      <path id="Thread 3" d="M100,100 m-20,69 a50,50 0 0,0 40,-2 l0,7 a-50,50 0 0,1 -40,2 z" />
      <path id="Thread 3" d="M100,100 m-20,76 a50,50 0 0,0 40,-2 l0,7 a-50,50 0 0,1 -40,2 z" />
    </g>
    <path id="End cap" style="fill: url(#EndCap)" d="M100,100 m-20,83 a50,50 0 0,0 40,-2 l0,2 -10,8 -20,0 -10,-8 z" />
    <g style="fill: none; stroke: #000; stroke-width: 1.5px; stroke-linecap:butt; stroke-linejoin: round">
      <path id="Thread outlines" d="M100,100 m-20,55 a50,50 0 0,0 40,-2 m0,7 a-50,50 0 0,1 -40,2 m0,7 a50,50 0 0,0 40,-2 m0,7 a-50,50 0 0,1 -40,2 m0,7 a50,50 0 0,0 40,-2" />
      <path id="Outer outline" d="M100,100 m-43.30127,21.69872981 a50,50 0 1,1 86.60254,0 c-6,12 -23.301270,18.301270 -23.301270,33.301270 l0,28 -10,8 -20,0 -10,-8 0,-28 c0,-15 -17.301270,-21.301270 -23.301270,-33.301270 z" />
    </g>
  </g>
</svg>
